<?xml version="1.0" encoding="utf-8"?>
<!-- Generator: Adobe Illustrator 16.0.0, SVG Export Plug-In . SVG Version: 6.00 Build 0)  -->
<!DOCTYPE svg PUBLIC "-//W3C//DTD SVG 1.1//EN" "http://www.w3.org/Graphics/SVG/1.1/DTD/svg11.dtd">
<svg version="1.1" id="Layer_1" xmlns="http://www.w3.org/2000/svg" xmlns:xlink="http://www.w3.org/1999/xlink" x="0px" y="0px"
	 width="23.618px" height="36.255px" viewBox="21.738 8.199 23.618 36.255" enable-background="new 21.738 8.199 23.618 36.255"
	 xml:space="preserve">
<linearGradient id="SVGID_1_" gradientUnits="userSpaceOnUse" x1="33.5469" y1="8.1995" x2="33.5469" y2="44.4553">
	<stop  offset="0" style="stop-color:#00FFD4"/>
	<stop  offset="1" style="stop-color:#00B0FF"/>
</linearGradient>
<path fill="url(#SVGID_1_)" d="M37.879,29.5c-0.484,0-1.849-0.445-2.771-1.67c-0.64-0.851-2.672-3.521-3.826-5.089
	c-0.806-1.094-0.524-1.967-0.444-2.413c0.046-0.258,0.07-0.525,0.07-0.796c0-0.419-0.046-1.305,1.305-2.363
	c0.865-0.677,2.396-1.878,3.388-2.653c0.557-0.438,1.796-0.419,2.277-0.419c1.628,0,2.947-1.319,2.947-2.949
	c0-1.627-1.319-2.948-2.947-2.948c-1.463,0-2.678,1.066-2.908,2.464c-0.026,0.158-0.292,1.093-0.74,1.395
	c-0.925,0.622-2.55,1.7-3.825,2.474c-1.892,1.147-2.609,0.431-4.082,0.414c-2.532-0.028-4.585,2.053-4.585,4.586
	c0,2.085,1.392,3.844,3.295,4.401c0.41,0.12,1.366-0.059,2.401,1.533c0.972,1.494,2.323,3.964,2.968,5.085
	c0.982,1.706,0.563,3.481,0.342,4.187c-0.223,0.706-0.342,1.461-0.342,2.24c0,4.13,3.347,7.478,7.477,7.478
	c4.129,0,7.477-3.348,7.477-7.478C45.356,32.848,42.008,29.5,37.879,29.5z"/>
</svg>
