<?xml version="1.0" encoding="utf-8"?>
<!-- Generator: Adobe Illustrator 16.0.0, SVG Export Plug-In . SVG Version: 6.00 Build 0)  -->
<!DOCTYPE svg PUBLIC "-//W3C//DTD SVG 1.1//EN" "http://www.w3.org/Graphics/SVG/1.1/DTD/svg11.dtd">
<svg version="1.1" id="Layer_1" xmlns="http://www.w3.org/2000/svg" xmlns:xlink="http://www.w3.org/1999/xlink" x="0px" y="0px"
	 width="1035.035px" height="238.881px" viewBox="-1004.426 -202.601 1035.035 238.881"
	 enable-background="new -1004.426 -202.601 1035.035 238.881" xml:space="preserve">
<g>
	<path fill="#35B580" d="M-873.684-142.227c-18.445,6.419-27.545,26.265-20.918,45.302l37.842,108.729
		c6.625,19.039,26.081,28.943,44.526,22.525c18.443-6.42,27.337-26.86,20.917-45.302l-37.841-108.729
		C-835.784-138.741-855.239-148.645-873.684-142.227L-873.684-142.227z"/>
	<path fill="#70F2B1" d="M-837.328-134.131c-13.862-13.857-36.539-13.857-51.026,0L-994.031-28.456
		c-13.861,14.487-13.861,37.17,0,51.027c13.857,13.861,36.535,13.861,50.396,0l106.307-105.676
		C-823.47-97.593-823.47-120.271-837.328-134.131L-837.328-134.131z"/>
	<path fill="#3CD38E" d="M-837.328-134.131c13.857,13.86,13.857,36.538,0,51.026L-943.635,22.571
		c-13.861,13.861-36.539,13.861-50.396,0"/>
	<path fill="#70F2B1" d="M-642.513-90.469l-19.529-19.529L-797.48,25.447c-14.493,13.857-37.169,13.857-51.027,0
		c-13.861-14.492-13.861-37.17,0-51.027l135.441-135.444l-19.529-19.529l112.136-22.047L-642.513-90.469z"/>
	<path fill="#3CD38E" d="M-848.508,25.447c13.857,13.857,36.535,13.857,51.026,0l135.44-135.445l19.529,19.529l22.053-112.132"/>
</g>
<g>
	<path fill="#FFFFFF" d="M-605.124-200.237h38.447l27.71,83.995l27.71-83.995h36.889l-46.934,121.403h-37.408L-605.124-200.237z"/>
	<path fill="#FFFFFF" d="M-469.176-200.237h99.235v27.709h-63.213v19.051h57.325v27.709h-57.325v19.225h64.945v27.709h-100.967
		V-200.237z"/>
	<path fill="#FFFFFF" d="M-272.956-200.237h32.906v121.403h-30.654l-51.437-67.543v67.543h-33.079v-121.403h30.828l51.436,67.716
		V-200.237z"/>
	<path fill="#FFFFFF" d="M-136.574-192.703c9.872,5.022,17.519,12.124,22.948,21.303c5.426,9.178,8.14,19.772,8.14,31.779
		c0,12.009-2.771,22.63-8.312,31.866c-5.542,9.238-13.335,16.366-23.38,21.389s-21.648,7.533-34.811,7.533h-51.956v-121.403h53.168
		C-157.848-200.237-146.445-197.726-136.574-192.703z M-149.822-115.895c5.079-5.889,7.62-13.682,7.62-23.381
		c0-9.698-2.714-17.548-8.14-23.552c-5.428-6.002-12.469-9.006-21.128-9.006h-16.453v64.772h18.185
		C-161.542-107.062-154.904-110.007-149.822-115.895z"/>
	<path fill="#FFFFFF" d="M-10.926-78.833l-7.101-19.397h-49.012l-7.274,19.397h-37.062l51.783-121.403h37.062L27.521-78.833H-10.926
		z M-56.994-124.554h29.441l-14.547-39.66L-56.994-124.554z"/>
</g>
<g>
	<path fill="#FFFFFF" d="M-616.741-54.063c-4.861-1.382-9.436-2.073-13.725-2.073c-6.862,0-12.366,1.356-16.513,4.074
		c-4.146,2.716-6.219,6.411-6.219,11.079c0,4.1,1.144,7.435,3.431,10.008c2.288,2.574,5.098,4.601,8.435,6.076
		c3.335,1.48,7.911,3.123,13.725,4.933c6.767,2.001,12.224,3.981,16.37,5.934c4.146,1.955,7.671,4.789,10.58,8.505
		c2.906,3.718,4.36,8.628,4.36,14.727c0,5.338-1.501,10.057-4.503,14.152c-3.002,4.1-7.22,7.27-12.652,9.508
		c-5.433,2.241-11.677,3.36-18.729,3.36c-6.959,0-13.75-1.38-20.373-4.146c-6.625-2.762-12.319-6.434-17.084-11.009l4.575-8.149
		c4.479,4.386,9.672,7.816,15.583,10.294c5.909,2.48,11.723,3.716,17.442,3.716c7.624,0,13.675-1.547,18.157-4.645
		c4.479-3.097,6.719-7.267,6.719-12.51c0-4.193-1.144-7.625-3.431-10.294c-2.288-2.667-5.1-4.719-8.436-6.147
		c-3.337-1.429-8.006-3.097-14.011-5.003c-6.769-2.097-12.202-4.075-16.298-5.934c-4.099-1.859-7.578-4.621-10.437-8.293
		c-2.859-3.667-4.289-8.456-4.289-14.367c0-5.052,1.43-9.484,4.289-13.296c2.859-3.812,6.863-6.744,12.01-8.793
		c5.146-2.048,11.103-3.074,17.871-3.074c5.433,0,10.888,0.812,16.37,2.432c5.479,1.622,10.316,3.765,14.511,6.432l-4.29,8.436
		C-607.401-50.705-611.88-52.68-616.741-54.063z"/>
	<path fill="#FFFFFF" d="M-554.695-64.429h9.864v99.936h-9.864V-64.429z"/>
	<path fill="#FFFFFF" d="M-496.224-64.571h12.295l39.173,75.058l38.744-75.058h12.295V35.506h-9.15l-0.143-86.353l-39.173,75.63
		h-5.433l-39.316-75.63v86.353h-9.293V-64.571z"/>
	<path fill="#FFFFFF" d="M-279.485-55.78c6.767,5.769,10.151,13.941,10.151,24.519c0,10.962-3.384,19.444-10.151,25.45
		c-6.769,6.003-16.347,9.005-28.736,9.005h-27.021v32.312h-9.865v-99.936h36.886C-295.833-64.429-286.254-61.544-279.485-55.78z
		 M-286.562-12.173c5.194-4.337,7.792-10.604,7.792-18.802c0-8.004-2.573-14.104-7.72-18.299c-5.146-4.193-12.534-6.292-22.16-6.292
		h-26.592v49.896h26.592C-299.121-5.669-291.758-7.836-286.562-12.173z"/>
	<path fill="#FFFFFF" d="M-232.448-64.429h9.864v91.07h44.034v8.866h-53.898V-64.429z"/>
	<path fill="#FFFFFF" d="M-141.952-64.429h66.908v8.864h-57.044v35.742h51.04v8.866h-51.04V26.64h58.903v8.866h-68.767V-64.429z"/>
	<path fill="#FFFFFF" d="M10.165-54.063c-4.861-1.382-9.436-2.073-13.725-2.073c-6.862,0-12.367,1.356-16.513,4.074
		c-4.146,2.716-6.219,6.411-6.219,11.079c0,4.1,1.144,7.435,3.431,10.008c2.288,2.574,5.098,4.601,8.435,6.076
		c3.335,1.48,7.911,3.123,13.725,4.933c6.767,2.001,12.224,3.981,16.37,5.934c4.146,1.955,7.67,4.789,10.579,8.505
		c2.907,3.718,4.361,8.628,4.361,14.727c0,5.338-1.501,10.057-4.504,14.152c-3.002,4.1-7.22,7.27-12.652,9.508
		C8.02,35.101,1.776,36.22-5.276,36.22c-6.959,0-13.75-1.38-20.373-4.146c-6.625-2.762-12.32-6.434-17.084-11.009l4.575-8.149
		c4.479,4.386,9.672,7.816,15.583,10.294c5.909,2.48,11.723,3.716,17.442,3.716c7.624,0,13.675-1.547,18.156-4.645
		c4.479-3.097,6.72-7.267,6.72-12.51c0-4.193-1.144-7.625-3.431-10.294c-2.287-2.667-5.1-4.719-8.435-6.147
		C4.54-8.098-0.129-9.767-6.134-11.673c-6.769-2.097-12.201-4.075-16.298-5.934c-4.1-1.859-7.578-4.621-10.437-8.293
		c-2.859-3.667-4.289-8.456-4.289-14.367c0-5.052,1.43-9.484,4.289-13.296c2.859-3.812,6.863-6.744,12.009-8.793
		c5.147-2.048,11.103-3.074,17.871-3.074c5.433,0,10.888,0.812,16.37,2.432c5.479,1.622,10.316,3.765,14.511,6.432l-4.289,8.436
		C19.504-50.705,15.025-52.68,10.165-54.063z"/>
</g>
</svg>
