<?xml version="1.0" encoding="utf-8"?>
<!-- Generator: Adobe Illustrator 16.0.0, SVG Export Plug-In . SVG Version: 6.00 Build 0)  -->
<!DOCTYPE svg PUBLIC "-//W3C//DTD SVG 1.1//EN" "http://www.w3.org/Graphics/SVG/1.1/DTD/svg11.dtd">
<svg version="1.1" id="Layer_1" xmlns="http://www.w3.org/2000/svg" xmlns:xlink="http://www.w3.org/1999/xlink" x="0px" y="0px"
	 width="390.081px" height="242.238px" viewBox="0 0 390.081 242.238" enable-background="new 0 0 390.081 242.238"
	 xml:space="preserve">
<path fill="#35B580" d="M132.825,61.336c-18.738,6.521-27.984,26.682-21.252,46.023l38.445,110.46
	c6.731,19.342,26.497,29.403,45.235,22.883c18.737-6.523,27.773-27.287,21.251-46.023L178.06,84.22
	C171.328,64.877,151.563,54.815,132.825,61.336L132.825,61.336z M132.825,61.336"/>
<path fill="#70F2B1" d="M169.76,69.559c-14.082-14.078-37.121-14.078-51.839,0L10.561,176.918c-14.081,14.718-14.081,37.761,0,51.84
	c14.078,14.082,37.117,14.082,51.199,0l108-107.359C183.838,106.68,183.838,83.641,169.76,69.559L169.76,69.559z M169.76,69.559"/>
<path fill="#3CD38E" d="M169.76,69.559c14.078,14.082,14.078,37.121,0,51.84l-108,107.359c-14.082,14.082-37.121,14.082-51.199,0"/>
<path fill="#70F2B1" d="M367.678,113.918l-19.84-19.84L210.241,231.679c-14.723,14.079-37.761,14.079-51.839,0
	c-14.082-14.722-14.082-37.761,0-51.839L295.999,42.238l-19.84-19.84L390.081,0L367.678,113.918z M390.081,0"/>
<path fill="#3CD38E" d="M158.401,231.679c14.078,14.079,37.117,14.079,51.839,0L347.838,94.078l19.84,19.84L390.081,0"/>
</svg>
